<?xml version="1.0" encoding="UTF-8"?> <svg xmlns="http://www.w3.org/2000/svg" xmlns:xlink="http://www.w3.org/1999/xlink" version="1.1" id="Layer_1" x="0px" y="0px" viewBox="0 0 1278.3 639.7" style="enable-background:new 0 0 1278.3 639.7;" xml:space="preserve"> <style type="text/css"> .st0{fill:#231F20;} .st1{fill:#00B4EF;} .st2{fill:#FFFFFF;} </style> <g> <path class="st0" d="M290.5,221.8h35.1v20.3h-35.1v70.2c0,12,7.3,19.5,22.6,19.5h12.5v21.1h-12.5c-28.9,0-45.2-16.6-45.2-40.6 v-70.2h-17.2v-10.9l30.4-37.4h9.4V221.8z"></path> <path class="st0" d="M434,261.6v91.3h-10.9l-18.5-18.7h-0.3c0,4.7-3.1,21.1-25.7,21.1s-34.3-15.3-34.3-36.7 c0-23.1,16.4-37.4,44.5-37.4h22.6v-19.5c0-12.7-8.1-19.5-22.6-19.5H349v-20.3h39.8C417.6,221.8,434,237.7,434,261.6z M388.8,299 c-14.3,0-21.8,7.3-21.8,18.5c0,10.9,7.5,18.2,21.8,18.2c15.3,0,22.6-8.3,22.6-20.3V299L388.8,299L388.8,299z"></path> <path class="st0" d="M556.5,260.8h-22.6c0-12.7-7.3-21.1-22.6-21.1c-15.3,0-22.6,8.3-22.6,21.1v53c0,12.7,7.3,21.1,22.6,21.1 c15.3,0,22.6-8.3,22.6-21.1h22.6c0,23.9-16.4,41.3-45.2,41.3S466,337.8,466,313.9v-53c0-23.9,16.4-41.3,45.2-41.3 C540.1,219.5,556.5,236.9,556.5,260.8z"></path> <path class="st0" d="M622.8,290.5l-16.4,18.7v43.7h-22.6V165.7h22.6v113.6l47.6-57.5h27.3l-43.2,51l44.7,80.1H656L622.8,290.5z"></path> <path class="st0" d="M730.4,332.6h16.4v20.3h-55.4v-20.3h16.4V165.7h22.6L730.4,332.6L730.4,332.6z"></path> <path class="st0" d="M856,257.7c0,21.8-15.3,35.9-43.7,35.9h-23.4v19.5c0,11.4,7.3,19.5,22.6,19.5h43.7v20.3h-43.7 c-28.9,0-45.2-16.1-45.2-39.8v-53.8c0-23.1,16.4-39.8,45.2-39.8S856,235.3,856,257.7z M788.9,259.3v16.4h22.6 c14.3,0,21.8-7.3,21.8-18.5c0-10.9-7.5-18.2-21.8-18.2C796.2,239,788.9,247.3,788.9,259.3z"></path> <path class="st1" d="M965.9,261.6v91.3H955l-18.5-18.7h-0.3c0,4.7-3.1,21.1-25.7,21.1s-34.3-15.3-34.3-36.7 c0-23.1,16.4-37.4,44.5-37.4h22.6v-19.5c0-12.7-8.1-19.5-22.6-19.5h-39.8v-20.3h39.8C949.6,221.8,965.9,237.7,965.9,261.6z M920.7,299c-14.3,0-21.8,7.3-21.8,18.5c0,10.9,7.5,18.2,21.8,18.2c15.3,0,22.6-8.3,22.6-20.3V299L920.7,299L920.7,299z"></path> <path class="st1" d="M1027.3,196.1h-27v-24.2h27V196.1z M1025.2,352.9h-22.6v-131h22.6V352.9z"></path> </g> <g> <path class="st0" d="M468.3,415.7c0,0.3,0,0.6-0.1,0.8c0,0.2-0.1,0.4-0.2,0.6c-0.1,0.2-0.2,0.3-0.4,0.4c-0.1,0.1-0.3,0.1-0.5,0.1 h-13.9v42.1c0,0.1,0,0.3-0.1,0.4c-0.1,0.1-0.2,0.2-0.4,0.3c-0.2,0.1-0.4,0.1-0.7,0.2c-0.3,0-0.6,0.1-1,0.1c-0.4,0-0.8,0-1-0.1 c-0.3,0-0.5-0.1-0.7-0.2c-0.2-0.1-0.3-0.2-0.4-0.3c-0.1-0.1-0.1-0.3-0.1-0.4v-42.1h-13.9c-0.2,0-0.4,0-0.5-0.1 c-0.1-0.1-0.2-0.2-0.3-0.4c-0.1-0.2-0.2-0.4-0.2-0.6c0-0.2-0.1-0.5-0.1-0.8c0-0.3,0-0.6,0.1-0.9c0-0.3,0.1-0.5,0.2-0.6 c0.1-0.2,0.2-0.3,0.3-0.4c0.1-0.1,0.3-0.1,0.5-0.1h32.3c0.2,0,0.3,0,0.5,0.1c0.1,0.1,0.3,0.2,0.4,0.4c0.1,0.2,0.2,0.4,0.2,0.6 C468.3,415.1,468.3,415.4,468.3,415.7z"></path> <path class="st0" d="M501.5,459.7c0,0.1,0,0.3-0.1,0.4c-0.1,0.1-0.2,0.2-0.3,0.3c-0.2,0.1-0.4,0.1-0.6,0.2c-0.3,0-0.6,0.1-1,0.1 c-0.4,0-0.8,0-1.1-0.1c-0.3,0-0.5-0.1-0.6-0.2c-0.2-0.1-0.3-0.2-0.3-0.3c-0.1-0.1-0.1-0.3-0.1-0.4v-19.4c0-2-0.2-3.7-0.5-4.9 c-0.3-1.3-0.8-2.3-1.4-3.3c-0.6-0.9-1.4-1.6-2.4-2.1c-1-0.5-2.1-0.7-3.4-0.7c-1.7,0-3.3,0.6-5,1.8c-1.7,1.2-3.4,2.9-5.2,5.2v23.5 c0,0.1,0,0.3-0.1,0.4c-0.1,0.1-0.2,0.2-0.3,0.3c-0.2,0.1-0.4,0.1-0.6,0.2c-0.3,0-0.6,0.1-1.1,0.1c-0.4,0-0.8,0-1-0.1 c-0.3,0-0.5-0.1-0.7-0.2c-0.2-0.1-0.3-0.2-0.3-0.3c-0.1-0.1-0.1-0.3-0.1-0.4V411c0-0.1,0-0.3,0.1-0.4c0.1-0.1,0.2-0.2,0.3-0.3 c0.2-0.1,0.4-0.1,0.7-0.2c0.3,0,0.6-0.1,1-0.1c0.4,0,0.8,0,1.1,0.1c0.3,0,0.5,0.1,0.6,0.2c0.2,0.1,0.3,0.2,0.3,0.3 c0.1,0.1,0.1,0.3,0.1,0.4v20.4c1.8-2,3.6-3.4,5.3-4.4c1.8-0.9,3.6-1.4,5.3-1.4c2.1,0,4,0.4,5.4,1.1c1.5,0.7,2.7,1.7,3.6,2.9 s1.6,2.7,2,4.3c0.4,1.6,0.6,3.6,0.6,5.9L501.5,459.7L501.5,459.7z"></path> <path class="st0" d="M540.1,441.7c0,0.9-0.2,1.5-0.7,1.8c-0.5,0.3-0.9,0.5-1.3,0.5h-22.3c0,2,0.2,3.9,0.6,5.5c0.4,1.6,1.1,3,2,4.2 c0.9,1.2,2.1,2.1,3.6,2.7c1.5,0.6,3.3,0.9,5.4,0.9c1.5,0,2.9-0.1,4.1-0.4c1.2-0.3,2.2-0.6,3.1-0.9c0.9-0.3,1.6-0.6,2.2-0.9 c0.6-0.3,1-0.4,1.2-0.4c0.1,0,0.3,0,0.4,0.1s0.2,0.2,0.3,0.3c0.1,0.2,0.1,0.4,0.2,0.6c0,0.2,0.1,0.5,0.1,0.9c0,0.2,0,0.3,0,0.5 c0,0.2-0.1,0.3-0.1,0.4c0,0.1-0.1,0.3-0.2,0.4c-0.1,0.1-0.2,0.2-0.3,0.4c-0.1,0.1-0.5,0.3-1.1,0.6c-0.6,0.3-1.4,0.6-2.5,0.9 c-1,0.3-2.2,0.6-3.5,0.8c-1.3,0.2-2.8,0.4-4.3,0.4c-2.5,0-4.8-0.4-6.7-1.1c-2-0.8-3.6-1.9-4.9-3.4c-1.3-1.5-2.3-3.3-3-5.5 c-0.7-2.2-1-4.7-1-7.6c0-2.8,0.4-5.3,1.1-7.4c0.7-2.2,1.7-4.1,3.1-5.6c1.3-1.5,2.9-2.7,4.8-3.5c1.9-0.8,3.9-1.2,6.2-1.2 c2.5,0,4.6,0.4,6.3,1.2s3.2,1.9,4.3,3.3c1.1,1.4,1.9,3,2.5,4.8c0.5,1.8,0.8,3.8,0.8,5.8L540.1,441.7L540.1,441.7z M535.6,440.4 c0.1-3.5-0.7-6.2-2.4-8.1s-4.1-2.9-7.3-2.9c-1.6,0-3.1,0.3-4.3,0.9c-1.2,0.6-2.3,1.4-3.1,2.4c-0.9,1-1.5,2.2-2,3.5 c-0.5,1.3-0.7,2.7-0.8,4.2L535.6,440.4L535.6,440.4z"></path> <path class="st0" d="M574.3,459.2c0,0.2-0.1,0.5-0.2,0.6c-0.1,0.2-0.4,0.3-0.7,0.5c-0.3,0.1-0.8,0.2-1.4,0.3 c-0.6,0.1-1.3,0.1-2.2,0.1c-0.9,0-1.6,0-2.2-0.1c-0.6-0.1-1-0.1-1.4-0.3c-0.3-0.1-0.6-0.3-0.7-0.5c-0.1-0.2-0.2-0.4-0.2-0.6v-47.5 c0-0.2,0.1-0.5,0.2-0.6c0.1-0.2,0.4-0.4,0.7-0.5c0.3-0.1,0.8-0.2,1.4-0.3s1.3-0.1,2.2-0.1c0.9,0,1.6,0,2.2,0.1s1,0.2,1.4,0.3 c0.3,0.1,0.6,0.3,0.7,0.5c0.1,0.2,0.2,0.4,0.2,0.6V459.2z"></path> <path class="st0" d="M616,442.8c0,2.7-0.4,5.3-1.1,7.5c-0.7,2.3-1.8,4.2-3.3,5.9c-1.5,1.6-3.3,2.9-5.5,3.8 c-2.2,0.9-4.8,1.3-7.8,1.3c-2.9,0-5.4-0.4-7.5-1.2c-2.1-0.8-3.9-2-5.3-3.5c-1.4-1.5-2.4-3.4-3.1-5.6c-0.7-2.2-1-4.7-1-7.6 c0-2.7,0.4-5.3,1.1-7.5c0.7-2.3,1.8-4.2,3.3-5.9c1.5-1.6,3.3-2.9,5.5-3.8c2.2-0.9,4.8-1.3,7.8-1.3c2.9,0,5.4,0.4,7.5,1.2 c2.1,0.8,3.9,1.9,5.3,3.5c1.4,1.5,2.4,3.4,3.1,5.6C615.7,437.4,616,439.9,616,442.8z M606.6,443.1c0-1.6-0.1-3.1-0.4-4.4 c-0.3-1.3-0.7-2.5-1.3-3.5c-0.6-1-1.4-1.8-2.4-2.3c-1-0.6-2.3-0.8-3.8-0.8c-1.3,0-2.5,0.2-3.5,0.7c-1,0.5-1.8,1.2-2.5,2.2 c-0.7,1-1.1,2.1-1.5,3.4c-0.3,1.3-0.5,2.9-0.5,4.6c0,1.6,0.1,3.1,0.4,4.4c0.3,1.3,0.7,2.5,1.3,3.5c0.6,1,1.4,1.8,2.4,2.3 c1,0.5,2.3,0.8,3.8,0.8c1.4,0,2.6-0.2,3.6-0.7c1-0.5,1.8-1.2,2.5-2.1s1.1-2.1,1.4-3.4C606.5,446.4,606.6,444.8,606.6,443.1z"></path> <path class="st0" d="M652.2,429.2c0,1.2-0.1,2-0.4,2.6c-0.3,0.6-0.6,0.8-1,0.8h-3.8c0.5,0.6,0.9,1.2,1.1,2s0.3,1.5,0.3,2.3 c0,1.9-0.3,3.5-0.9,5c-0.6,1.5-1.5,2.7-2.7,3.7c-1.2,1-2.6,1.8-4.2,2.3c-1.6,0.5-3.5,0.8-5.5,0.8c-1,0-2-0.1-3-0.4 c-0.9-0.3-1.7-0.5-2.2-0.9c-0.3,0.3-0.5,0.7-0.8,1.1c-0.2,0.4-0.3,0.9-0.3,1.4c0,0.7,0.3,1.3,0.9,1.7c0.6,0.4,1.5,0.7,2.6,0.7 l7.8,0.3c1.8,0.1,3.5,0.3,4.9,0.8c1.4,0.4,2.6,1.1,3.6,1.9c1,0.8,1.7,1.8,2.2,2.9c0.5,1.1,0.8,2.4,0.8,3.9c0,1.6-0.3,3.1-1,4.5 c-0.7,1.4-1.7,2.6-3.1,3.7c-1.4,1-3.1,1.9-5.3,2.5c-2.1,0.6-4.6,0.9-7.4,0.9c-2.7,0-5.1-0.2-7-0.6c-1.9-0.4-3.5-1-4.8-1.8 s-2.1-1.7-2.7-2.8c-0.6-1.1-0.8-2.2-0.8-3.5c0-0.8,0.1-1.6,0.3-2.3c0.2-0.7,0.5-1.4,0.9-2.1c0.4-0.7,0.9-1.3,1.5-1.9s1.2-1.2,2-1.7 c-1-0.6-1.8-1.3-2.4-2.3c-0.6-1-0.8-2-0.8-3.1c0-1.4,0.3-2.7,1-3.9c0.7-1.2,1.5-2.2,2.5-3.2c-0.8-0.8-1.5-1.9-2-3 c-0.5-1.2-0.8-2.6-0.8-4.4c0-1.9,0.3-3.6,1-5c0.7-1.5,1.6-2.7,2.8-3.8c1.2-1,2.6-1.8,4.2-2.3c1.6-0.5,3.4-0.8,5.4-0.8 c1,0,2,0.1,2.9,0.2c0.9,0.1,1.8,0.3,2.6,0.5h10.2c0.4,0,0.7,0.3,1,0.8C652.1,427.1,652.2,428,652.2,429.2z M642.7,462.6 c0-1.1-0.4-1.9-1.3-2.5s-2.1-0.9-3.6-0.9l-6.5-0.2c-0.6,0.5-1.1,0.9-1.5,1.3c-0.4,0.4-0.7,0.8-0.9,1.2c-0.2,0.4-0.4,0.8-0.5,1.1 s-0.1,0.7-0.1,1.1c0,1.2,0.6,2.1,1.8,2.7c1.2,0.6,2.9,0.9,5.1,0.9c1.4,0,2.5-0.1,3.5-0.4c0.9-0.3,1.7-0.6,2.3-1.1 c0.6-0.5,1-1,1.2-1.5C642.6,463.8,642.7,463.2,642.7,462.6z M640.6,436.8c0-1.7-0.5-3.1-1.4-4c-1-1-2.3-1.4-4.1-1.4 c-0.9,0-1.7,0.1-2.3,0.5c-0.7,0.3-1.2,0.7-1.7,1.2c-0.4,0.5-0.8,1.1-1,1.8c-0.2,0.7-0.3,1.4-0.3,2.1c0,1.6,0.5,2.9,1.4,3.9 c1,1,2.3,1.4,4,1.4c0.9,0,1.7-0.1,2.4-0.4c0.7-0.3,1.2-0.7,1.7-1.2c0.4-0.5,0.8-1.1,1-1.8C640.5,438.3,640.6,437.6,640.6,436.8z"></path> <path class="st0" d="M668.1,416.1c0,1.8-0.4,3.1-1.1,3.8c-0.7,0.7-2.1,1-4.2,1c-2,0-3.4-0.3-4.1-1c-0.7-0.7-1.1-1.9-1.1-3.6 c0-1.8,0.4-3.1,1.1-3.8c0.7-0.7,2.1-1.1,4.2-1.1c2,0,3.4,0.3,4.1,1C667.7,413.1,668.1,414.3,668.1,416.1z M667.4,459.2 c0,0.2-0.1,0.5-0.2,0.6c-0.1,0.2-0.4,0.3-0.7,0.5c-0.3,0.1-0.8,0.2-1.4,0.3c-0.6,0.1-1.3,0.1-2.2,0.1c-0.9,0-1.6,0-2.2-0.1 c-0.6-0.1-1-0.1-1.4-0.3c-0.3-0.1-0.6-0.3-0.7-0.5c-0.1-0.2-0.2-0.4-0.2-0.6V427c0-0.2,0.1-0.5,0.2-0.6c0.1-0.2,0.4-0.3,0.7-0.5 c0.3-0.1,0.8-0.2,1.4-0.3s1.3-0.1,2.2-0.1c0.9,0,1.6,0,2.2,0.1s1,0.2,1.4,0.3c0.3,0.1,0.6,0.3,0.7,0.5c0.1,0.2,0.2,0.4,0.2,0.6 V459.2z"></path> <path class="st0" d="M700.8,454.1c0,0.6,0,1.1-0.1,1.6c0,0.4-0.1,0.8-0.1,1.1c-0.1,0.3-0.1,0.5-0.2,0.7c-0.1,0.2-0.3,0.4-0.6,0.7 c-0.3,0.3-0.8,0.6-1.5,1c-0.7,0.4-1.5,0.8-2.4,1.1c-0.9,0.3-1.9,0.6-2.9,0.8c-1,0.2-2.1,0.3-3.2,0.3c-2.5,0-4.7-0.4-6.6-1.2 c-1.9-0.8-3.5-1.9-4.8-3.4c-1.3-1.5-2.3-3.3-2.9-5.5c-0.7-2.2-1-4.6-1-7.4c0-3.2,0.4-6,1.2-8.4c0.8-2.4,1.9-4.3,3.4-5.8 c1.4-1.5,3.2-2.7,5.1-3.4c2-0.7,4.1-1.1,6.5-1.1c1,0,1.9,0.1,2.8,0.3c0.9,0.2,1.8,0.4,2.6,0.7c0.8,0.3,1.5,0.6,2.2,1 c0.6,0.4,1.1,0.7,1.4,0.9c0.3,0.3,0.5,0.5,0.6,0.7c0.1,0.2,0.2,0.4,0.3,0.7c0.1,0.3,0.1,0.6,0.1,1.1c0,0.4,0.1,0.9,0.1,1.5 c0,1.4-0.1,2.4-0.4,2.9c-0.2,0.6-0.6,0.9-0.9,0.9c-0.4,0-0.8-0.2-1.3-0.5c-0.5-0.3-1-0.7-1.6-1.1c-0.6-0.4-1.4-0.8-2.2-1.1 c-0.9-0.3-1.9-0.5-3.1-0.5c-2.4,0-4.2,0.9-5.4,2.7c-1.3,1.8-1.9,4.5-1.9,8c0,1.7,0.2,3.3,0.5,4.6c0.3,1.3,0.8,2.4,1.4,3.3 c0.6,0.9,1.4,1.6,2.3,2c0.9,0.4,2,0.7,3.2,0.7c1.3,0,2.3-0.2,3.2-0.6c0.9-0.4,1.7-0.8,2.4-1.2c0.7-0.5,1.2-0.9,1.7-1.2 c0.5-0.4,0.8-0.6,1.2-0.6c0.2,0,0.4,0.1,0.5,0.2c0.1,0.1,0.3,0.3,0.3,0.7c0.1,0.3,0.1,0.7,0.2,1.2 C700.8,452.6,700.8,453.3,700.8,454.1z"></path> <path class="st0" d="M734.4,459.3c0,0.3-0.1,0.6-0.4,0.8c-0.2,0.2-0.6,0.3-1.1,0.4c-0.5,0.1-1.3,0.1-2.3,0.1c-1.1,0-1.9,0-2.4-0.1 c-0.5-0.1-0.8-0.2-1-0.4c-0.2-0.2-0.3-0.5-0.3-0.8v-2.6c-1.3,1.4-2.8,2.5-4.5,3.3c-1.7,0.8-3.6,1.2-5.7,1.2c-1.7,0-3.3-0.2-4.7-0.7 c-1.4-0.4-2.7-1.1-3.7-2c-1-0.9-1.9-2-2.4-3.3s-0.9-2.8-0.9-4.6c0-1.9,0.4-3.5,1.1-4.9c0.7-1.4,1.8-2.5,3.3-3.4 c1.5-0.9,3.3-1.6,5.4-2s4.7-0.6,7.6-0.6h3.1v-2c0-1-0.1-1.9-0.3-2.7c-0.2-0.8-0.5-1.4-1-1.9c-0.5-0.5-1.1-0.9-1.9-1.1 c-0.8-0.2-1.8-0.4-2.9-0.4c-1.5,0-2.9,0.2-4.1,0.5c-1.2,0.3-2.2,0.7-3.2,1.1c-0.9,0.4-1.7,0.8-2.3,1.1c-0.6,0.3-1.1,0.5-1.5,0.5 c-0.3,0-0.5-0.1-0.7-0.3c-0.2-0.2-0.4-0.4-0.5-0.7c-0.1-0.3-0.2-0.7-0.3-1.2c-0.1-0.5-0.1-1-0.1-1.5c0-0.7,0.1-1.3,0.2-1.8 c0.1-0.4,0.3-0.8,0.7-1.2c0.3-0.4,0.9-0.7,1.8-1.2c0.8-0.4,1.8-0.8,3-1.2c1.1-0.4,2.4-0.7,3.7-0.9c1.3-0.2,2.7-0.3,4.1-0.3 c2.5,0,4.7,0.2,6.5,0.7c1.8,0.5,3.3,1.3,4.4,2.3c1.2,1,2,2.3,2.5,4c0.5,1.6,0.8,3.5,0.8,5.7L734.4,459.3L734.4,459.3z M725.5,445.5 h-3.5c-1.5,0-2.7,0.1-3.8,0.3c-1,0.2-1.9,0.5-2.5,1s-1.1,1-1.4,1.6c-0.3,0.6-0.5,1.3-0.5,2.1c0,1.4,0.4,2.4,1.3,3.2 c0.9,0.8,2,1.2,3.6,1.2c1.3,0,2.5-0.3,3.5-1c1.1-0.6,2.2-1.6,3.3-2.9L725.5,445.5L725.5,445.5z"></path> <path class="st0" d="M752.6,459.2c0,0.2-0.1,0.5-0.2,0.6c-0.1,0.2-0.4,0.3-0.7,0.5c-0.3,0.1-0.8,0.2-1.4,0.3 c-0.6,0.1-1.3,0.1-2.2,0.1c-0.9,0-1.6,0-2.2-0.1c-0.6-0.1-1-0.1-1.4-0.3c-0.3-0.1-0.6-0.3-0.7-0.5c-0.1-0.2-0.2-0.4-0.2-0.6v-47.5 c0-0.2,0.1-0.5,0.2-0.6c0.1-0.2,0.4-0.4,0.7-0.5c0.3-0.1,0.8-0.2,1.4-0.3s1.3-0.1,2.2-0.1c0.9,0,1.6,0,2.2,0.1s1,0.2,1.4,0.3 c0.3,0.1,0.6,0.3,0.7,0.5c0.1,0.2,0.2,0.4,0.2,0.6V459.2z"></path> <path class="st0" d="M799.1,451c0,1.6-0.3,3-0.9,4.2c-0.6,1.2-1.4,2.3-2.5,3.2c-1.1,0.9-2.4,1.5-3.8,2s-3.1,0.7-5,0.7 c-1.1,0-2.2-0.1-3.2-0.3c-1-0.2-1.9-0.4-2.7-0.7c-0.8-0.3-1.5-0.6-2.1-0.9c-0.6-0.3-1-0.6-1.2-0.8c-0.3-0.2-0.5-0.5-0.6-0.9 c-0.1-0.4-0.2-0.8-0.2-1.4c0-0.3,0-0.6,0.1-0.8c0-0.2,0.1-0.4,0.2-0.6c0.1-0.2,0.2-0.3,0.3-0.4c0.1-0.1,0.3-0.1,0.4-0.1 c0.3,0,0.7,0.2,1.2,0.5c0.5,0.3,1.1,0.7,1.9,1.1c0.8,0.4,1.7,0.8,2.7,1.1c1,0.3,2.3,0.5,3.6,0.5c1.1,0,2.1-0.1,3-0.4 c0.9-0.2,1.7-0.6,2.4-1.1c0.7-0.5,1.2-1.1,1.6-1.9c0.4-0.8,0.6-1.6,0.6-2.7s-0.2-1.9-0.7-2.6c-0.5-0.7-1.1-1.3-1.9-1.8 c-0.8-0.5-1.7-1-2.7-1.4c-1-0.4-2-0.8-3.1-1.2c-1-0.4-2.1-0.9-3.1-1.4c-1-0.5-1.9-1.1-2.7-1.8c-0.8-0.7-1.4-1.6-1.9-2.6 c-0.5-1-0.7-2.2-0.7-3.6c0-1.1,0.2-2.2,0.7-3.3c0.4-1.1,1.1-2.1,2-2.9c0.9-0.9,2.1-1.6,3.5-2.1c1.4-0.5,3.1-0.8,5-0.8 c0.8,0,1.6,0.1,2.4,0.2c0.8,0.1,1.5,0.3,2.2,0.5c0.7,0.2,1.2,0.5,1.7,0.7c0.5,0.3,0.8,0.5,1.1,0.7c0.3,0.2,0.4,0.4,0.5,0.5 c0.1,0.1,0.1,0.3,0.2,0.4c0,0.1,0.1,0.3,0.1,0.5c0,0.2,0,0.5,0,0.7s0,0.5-0.1,0.8c0,0.2-0.1,0.4-0.2,0.6c-0.1,0.2-0.2,0.3-0.3,0.4 c-0.1,0.1-0.2,0.1-0.4,0.1c-0.2,0-0.5-0.1-0.9-0.4c-0.4-0.3-0.9-0.6-1.5-0.9c-0.6-0.3-1.4-0.6-2.2-0.9s-1.9-0.4-3-0.4 c-1.1,0-2.1,0.1-3,0.4c-0.9,0.3-1.6,0.6-2.1,1.1c-0.6,0.5-1,1-1.2,1.7c-0.3,0.6-0.4,1.4-0.4,2.1c0,1.1,0.2,2,0.7,2.7 c0.5,0.7,1.1,1.4,1.9,1.9c0.8,0.5,1.7,1,2.7,1.4c1,0.4,2,0.8,3.1,1.2c1,0.4,2.1,0.9,3.1,1.4c1,0.5,1.9,1.1,2.7,1.8 c0.8,0.7,1.4,1.5,1.9,2.5C798.9,448.5,799.1,449.6,799.1,451z"></path> <path class="st0" d="M837.5,443c0,2.6-0.3,5-1,7.2c-0.7,2.2-1.7,4.1-3,5.7c-1.3,1.6-3,2.9-5,3.8c-2,0.9-4.3,1.4-7,1.4 c-2.6,0-4.8-0.4-6.7-1.2c-1.9-0.8-3.5-2-4.8-3.5c-1.3-1.5-2.3-3.3-2.9-5.5c-0.6-2.1-1-4.6-1-7.3c0-2.6,0.3-5,1-7.2 c0.7-2.2,1.7-4.1,3-5.7c1.3-1.6,3-2.8,5-3.7c2-0.9,4.3-1.3,7-1.3c2.6,0,4.8,0.4,6.7,1.2c1.9,0.8,3.5,1.9,4.8,3.5 c1.3,1.5,2.2,3.3,2.9,5.5C837.1,437.9,837.5,440.3,837.5,443z M832.9,443.4c0-1.9-0.2-3.6-0.5-5.3c-0.4-1.7-1-3.2-1.8-4.5 c-0.8-1.3-2-2.3-3.4-3.1c-1.4-0.8-3.2-1.1-5.3-1.1c-2,0-3.6,0.4-5.1,1c-1.4,0.7-2.6,1.7-3.5,2.9c-0.9,1.2-1.6,2.7-2,4.4 c-0.4,1.7-0.7,3.5-0.7,5.5c0,1.9,0.2,3.7,0.5,5.4c0.4,1.7,1,3.2,1.8,4.5c0.8,1.3,2,2.3,3.4,3c1.4,0.7,3.2,1.1,5.3,1.1 c2,0,3.6-0.3,5.1-1c1.4-0.7,2.6-1.7,3.5-2.9c0.9-1.2,1.6-2.7,2-4.4C832.7,447.2,832.9,445.4,832.9,443.4z"></path> <path class="st0" d="M851.4,459.7c0,0.1,0,0.3-0.1,0.4c-0.1,0.1-0.2,0.2-0.3,0.3c-0.2,0.1-0.4,0.1-0.7,0.2c-0.3,0-0.6,0.1-1.1,0.1 c-0.4,0-0.8,0-1-0.1c-0.3,0-0.5-0.1-0.7-0.2c-0.2-0.1-0.3-0.2-0.3-0.3c-0.1-0.1-0.1-0.3-0.1-0.4V411c0-0.1,0-0.3,0.1-0.4 c0.1-0.1,0.2-0.2,0.3-0.3c0.2-0.1,0.4-0.1,0.7-0.2c0.3,0,0.6-0.1,1-0.1c0.4,0,0.8,0,1.1,0.1c0.3,0,0.5,0.1,0.7,0.2 c0.2,0.1,0.3,0.2,0.3,0.3c0.1,0.1,0.1,0.3,0.1,0.4V459.7z"></path> <path class="st0" d="M889.8,459.7c0,0.1,0,0.3-0.1,0.4c-0.1,0.1-0.2,0.2-0.3,0.3c-0.2,0.1-0.4,0.1-0.7,0.2c-0.3,0-0.6,0.1-1,0.1 c-0.4,0-0.8,0-1-0.1c-0.3,0-0.5-0.1-0.6-0.2s-0.2-0.2-0.3-0.3c-0.1-0.1-0.1-0.3-0.1-0.4v-4.6c-1.9,2.1-3.7,3.6-5.5,4.6 c-1.8,0.9-3.6,1.4-5.4,1.4c-2.1,0-4-0.4-5.4-1.1c-1.5-0.7-2.7-1.7-3.6-2.9c-0.9-1.2-1.6-2.7-2-4.3c-0.4-1.6-0.6-3.6-0.6-5.9V427 c0-0.1,0-0.3,0.1-0.4c0.1-0.1,0.2-0.2,0.3-0.3c0.2-0.1,0.4-0.1,0.7-0.2c0.3,0,0.6-0.1,1-0.1c0.4,0,0.8,0,1.1,0.1 c0.3,0,0.5,0.1,0.7,0.2c0.2,0.1,0.3,0.2,0.3,0.3c0.1,0.1,0.1,0.3,0.1,0.4v19.4c0,2,0.2,3.7,0.5,5c0.3,1.3,0.8,2.4,1.4,3.3 c0.6,0.9,1.4,1.6,2.4,2.1c1,0.5,2.1,0.7,3.4,0.7c1.7,0,3.3-0.6,5-1.8c1.7-1.2,3.4-2.9,5.3-5.2V427c0-0.1,0-0.3,0.1-0.4 c0.1-0.1,0.2-0.2,0.3-0.3c0.2-0.1,0.4-0.1,0.7-0.2c0.3,0,0.6-0.1,1.1-0.1c0.4,0,0.8,0,1,0.1c0.3,0,0.5,0.1,0.7,0.2 c0.2,0.1,0.3,0.2,0.3,0.3c0.1,0.1,0.1,0.3,0.1,0.4L889.8,459.7L889.8,459.7z"></path> <path class="st0" d="M928.5,426.3c0.6,0,0.9,0.1,1.1,0.4c0.2,0.3,0.3,0.7,0.3,1.1v31.9c0,0.1,0,0.3-0.1,0.4 c-0.1,0.1-0.2,0.2-0.3,0.3c-0.2,0.1-0.4,0.1-0.7,0.2c-0.3,0-0.6,0.1-1,0.1c-0.4,0-0.8,0-1.1-0.1c-0.3,0-0.5-0.1-0.7-0.2 c-0.2-0.1-0.3-0.2-0.3-0.3c-0.1-0.1-0.1-0.3-0.1-0.4v-29.8h-18.1v19.8c0,2.5,0.4,4.4,1.1,5.7c0.7,1.3,2,2,3.9,2 c0.6,0,1.1-0.1,1.6-0.2c0.5-0.1,0.9-0.3,1.2-0.4s0.7-0.3,0.9-0.4c0.3-0.1,0.5-0.2,0.7-0.2c0.1,0,0.2,0,0.3,0.1 c0.1,0,0.2,0.1,0.2,0.3c0.1,0.1,0.1,0.3,0.1,0.5c0,0.2,0.1,0.5,0.1,0.8c0,0.5,0,0.9-0.1,1.2c-0.1,0.3-0.2,0.6-0.4,0.7 c-0.2,0.2-0.4,0.4-0.8,0.5c-0.3,0.2-0.8,0.3-1.2,0.4c-0.5,0.1-0.9,0.2-1.4,0.3c-0.5,0.1-1,0.1-1.5,0.1c-1.6,0-3-0.2-4.1-0.6 c-1.1-0.4-2.1-1.1-2.8-2c-0.7-0.9-1.2-2-1.6-3.3c-0.3-1.3-0.5-2.9-0.5-4.8v-20.3h-4.9c-0.3,0-0.6-0.1-0.8-0.5 c-0.2-0.3-0.3-0.8-0.3-1.4c0-0.3,0-0.6,0.1-0.8c0-0.2,0.1-0.4,0.2-0.6c0.1-0.2,0.2-0.3,0.3-0.3c0.1-0.1,0.3-0.1,0.5-0.1h4.9v-8 c0-0.1,0-0.3,0.1-0.4c0.1-0.1,0.2-0.2,0.3-0.3c0.2-0.1,0.4-0.1,0.7-0.2c0.3,0,0.6-0.1,1-0.1c0.4,0,0.8,0,1.1,0.1 c0.3,0,0.5,0.1,0.7,0.2c0.2,0.1,0.3,0.2,0.3,0.3c0.1,0.1,0.1,0.3,0.1,0.4v8L928.5,426.3L928.5,426.3z M930.5,416 c0,1.2-0.2,1.9-0.6,2.3c-0.4,0.4-1.2,0.6-2.2,0.6c-1.1,0-1.8-0.2-2.2-0.6c-0.4-0.4-0.6-1.2-0.6-2.3s0.2-1.9,0.6-2.3 c0.4-0.4,1.2-0.6,2.2-0.6c1.1,0,1.8,0.2,2.2,0.6C930.3,414.1,930.5,414.8,930.5,416z"></path> <path class="st0" d="M970.9,443c0,2.6-0.3,5-1,7.2c-0.7,2.2-1.7,4.1-3,5.7c-1.3,1.6-3,2.9-5,3.8c-2,0.9-4.3,1.4-7,1.4 c-2.6,0-4.8-0.4-6.7-1.2c-1.9-0.8-3.5-2-4.8-3.5c-1.3-1.5-2.3-3.3-2.9-5.5c-0.6-2.1-1-4.6-1-7.3c0-2.6,0.3-5,1-7.2 c0.7-2.2,1.7-4.1,3-5.7c1.3-1.6,3-2.8,5-3.7c2-0.9,4.3-1.3,7-1.3c2.6,0,4.8,0.4,6.7,1.2c1.9,0.8,3.5,1.9,4.8,3.5 c1.3,1.5,2.2,3.3,2.9,5.5C970.6,437.9,970.9,440.3,970.9,443z M966.3,443.4c0-1.9-0.2-3.6-0.5-5.3c-0.4-1.7-1-3.2-1.8-4.5 c-0.8-1.3-2-2.3-3.4-3.1c-1.4-0.8-3.2-1.1-5.3-1.1c-2,0-3.6,0.4-5.1,1c-1.4,0.7-2.6,1.7-3.5,2.9c-0.9,1.2-1.6,2.7-2,4.4 c-0.4,1.7-0.7,3.5-0.7,5.5c0,1.9,0.2,3.7,0.5,5.4c0.4,1.7,1,3.2,1.8,4.5c0.8,1.3,2,2.3,3.4,3c1.4,0.7,3.2,1.1,5.3,1.1 c2,0,3.6-0.3,5.1-1c1.4-0.7,2.6-1.7,3.5-2.9c0.9-1.2,1.6-2.7,2-4.4C966.1,447.2,966.3,445.4,966.3,443.4z"></path> <path class="st0" d="M1007.1,459.7c0,0.1,0,0.3-0.1,0.4c-0.1,0.1-0.2,0.2-0.3,0.3c-0.2,0.1-0.4,0.1-0.7,0.2c-0.3,0-0.6,0.1-1,0.1 c-0.4,0-0.8,0-1.1-0.1c-0.3,0-0.5-0.1-0.7-0.2c-0.2-0.1-0.3-0.2-0.3-0.3c-0.1-0.1-0.1-0.3-0.1-0.4v-19.4c0-2-0.2-3.7-0.5-4.9 c-0.3-1.3-0.8-2.3-1.4-3.3c-0.6-0.9-1.4-1.6-2.4-2.1c-1-0.5-2.1-0.7-3.4-0.7c-1.7,0-3.3,0.6-5,1.8c-1.7,1.2-3.4,2.9-5.2,5.2v23.5 c0,0.1,0,0.3-0.1,0.4c-0.1,0.1-0.2,0.2-0.3,0.3c-0.2,0.1-0.4,0.1-0.7,0.2c-0.3,0-0.6,0.1-1.1,0.1c-0.4,0-0.8,0-1-0.1 c-0.3,0-0.5-0.1-0.7-0.2c-0.2-0.1-0.3-0.2-0.3-0.3c-0.1-0.1-0.1-0.3-0.1-0.4V427c0-0.1,0-0.3,0.1-0.4c0.1-0.1,0.2-0.2,0.3-0.3 c0.2-0.1,0.4-0.1,0.6-0.2c0.3,0,0.6-0.1,1-0.1c0.4,0,0.7,0,1,0.1c0.3,0,0.5,0.1,0.6,0.2c0.1,0.1,0.2,0.2,0.3,0.3 c0.1,0.1,0.1,0.3,0.1,0.4v4.6c1.9-2.1,3.7-3.6,5.5-4.6s3.6-1.4,5.4-1.4c2.1,0,4,0.4,5.4,1.1c1.5,0.7,2.7,1.7,3.6,2.9 c0.9,1.2,1.6,2.7,2,4.3c0.4,1.6,0.6,3.6,0.6,5.9L1007.1,459.7L1007.1,459.7z"></path> <path class="st0" d="M1025.1,457.2c0,1.4-0.2,2.4-0.7,2.8s-1.3,0.7-2.5,0.7c-1.1,0-1.9-0.2-2.4-0.7c-0.4-0.4-0.7-1.4-0.7-2.8 c0-1.4,0.2-2.4,0.7-2.8c0.5-0.5,1.3-0.7,2.5-0.7c1.1,0,1.9,0.2,2.4,0.7C1024.9,454.9,1025.1,455.8,1025.1,457.2z"></path> </g> </svg> 